<svg width="512" height="512" viewBox="0 0 512 512" xmlns="http://www.w3.org/2000/svg">
  <!-- Logo Sisupit DAMKAR — meniru kartu ikon di halaman Spotlight:
       api putih (Tabler IconFlame, varian filled) di dalam kotak merah membulat (red-700). -->
  <rect x="16" y="16" width="480" height="480" rx="96" ry="96" fill="#b91c1c" />
  <g transform="translate(256,260) scale(13.2) translate(-12,-12)" fill="#ffffff">
    <path d="M10 2c0 -.88 1.056 -1.331 1.692 -.722c1.958 1.876 3.096 5.995 1.75 9.12l-.08 .174l.012 .003c.625 .133 1.203 -.43 2.303 -2.173l.14 -.224a1 1 0 0 1 1.582 -.153c1.334 1.435 2.601 4.377 2.601 6.27c0 4.265 -3.591 7.705 -8 7.705s-8 -3.44 -8 -7.706c0 -2.252 1.022 -4.716 2.632 -6.301l.605 -.589c.241 -.236 .434 -.43 .618 -.624c1.43 -1.512 2.145 -2.924 2.145 -4.78" />
  </g>
</svg>
